<svg width="536" height="594" viewBox="0 0 536 594" fill="none" xmlns="http://www.w3.org/2000/svg">
<g clip-path="url(#clip0_1189_7)">
<path fill-rule="evenodd" clip-rule="evenodd" d="M0 594H536V0H0V594Z" fill="#DFEDFB"/>
<g opacity="0.25">
<path fill-rule="evenodd" clip-rule="evenodd" d="M186.052 138.017H201.263V121.963H186.052V138.017ZM201.667 138.817H185.653C185.433 138.817 185.254 138.638 185.254 138.417V121.563C185.254 121.343 185.432 121.158 185.653 121.158H201.667C201.887 121.158 202.067 121.342 202.067 121.563V138.417C202.067 138.638 201.887 138.817 201.667 138.817Z" fill="#192848"/>
<path fill-rule="evenodd" clip-rule="evenodd" d="M213.677 138.817H201.667V138.012H213.277V121.963H201.667V121.158H213.677C213.897 121.158 214.076 121.342 214.076 121.558V138.417C214.076 138.638 213.898 138.817 213.677 138.817ZM185.656 138.817H173.646C173.426 138.817 173.242 138.638 173.242 138.417V121.558C173.242 121.342 173.426 121.158 173.647 121.158H185.656V121.963H174.046V138.012H185.656V138.817ZM188.058 135.207H199.27V127.983H188.058V135.207ZM186.62 113.135H191.118L200.702 113.119L195.921 108.331C195.842 108.257 195.8 108.157 195.8 108.051V104.306H191.522V108.052C191.522 108.157 191.48 108.257 191.402 108.331L186.62 113.135ZM191.118 113.94H185.654C185.491 113.94 185.344 113.84 185.287 113.687C185.224 113.54 185.255 113.367 185.37 113.251L190.72 107.884V103.906C190.72 103.685 190.903 103.5 191.118 103.5H196.204C196.419 103.5 196.604 103.685 196.604 103.906V107.884L201.952 113.234C202.062 113.351 202.099 113.524 202.036 113.677C201.973 113.824 201.831 113.924 201.668 113.924L191.118 113.94ZM188.053 125.578H199.264V124.773H188.053V125.578Z" fill="#192848"/>
<path fill-rule="evenodd" clip-rule="evenodd" d="M176.047 125.578H183.254V124.773H176.047V125.578ZM204.066 125.578H211.273V124.773H204.066V125.578ZM287.129 130.976H312.114C312.114 133.591 309.998 135.716 307.384 135.716H291.858C289.244 135.716 287.129 133.591 287.129 130.976Z" fill="#192848"/>
<path fill-rule="evenodd" clip-rule="evenodd" d="M287.467 124.545V130.295C287.467 133.095 289.761 135.374 292.579 135.374H306.667C309.486 135.374 311.775 133.095 311.775 130.296V124.545H287.467ZM306.667 136.052H292.579C289.388 136.052 286.789 133.474 286.789 130.296V124.208C286.789 124.018 286.942 123.871 287.131 123.871H312.111C312.299 123.871 312.451 124.018 312.451 124.208V130.296C312.451 133.474 309.859 136.052 306.667 136.052ZM296.263 114.391H303.659C303.485 112.497 301.895 111.008 299.959 111.008C298.814 111.008 297.743 111.529 297.035 112.439C296.588 113.008 296.326 113.676 296.263 114.391ZM304.01 115.071H295.911C295.722 115.071 295.575 114.918 295.575 114.728C295.575 113.738 295.895 112.802 296.505 112.024C297.339 110.944 298.604 110.329 299.958 110.329C302.383 110.329 304.352 112.302 304.352 114.729C304.352 114.918 304.199 115.071 304.01 115.071Z" fill="#192848"/>
<path fill-rule="evenodd" clip-rule="evenodd" d="M308.402 124.09H307.724V110.64C307.724 108.604 306.06 106.947 304.013 106.947C301.966 106.947 300.297 108.604 300.297 110.641H299.625C299.625 108.231 301.593 106.268 304.013 106.268C306.433 106.268 308.401 108.231 308.401 110.641V124.09H308.402ZM297.596 120.822C297.412 120.822 297.26 120.669 297.26 120.485V117.775C297.26 117.591 297.412 117.439 297.596 117.439C297.785 117.439 297.932 117.591 297.932 117.775V120.485C297.932 120.669 297.785 120.822 297.596 120.822ZM299.622 120.822C299.434 120.822 299.287 120.669 299.287 120.485V117.775C299.287 117.591 299.434 117.439 299.623 117.439C299.807 117.439 299.959 117.591 299.959 117.775V120.485C299.959 120.669 299.807 120.822 299.623 120.822M302.322 120.822C302.138 120.822 301.986 120.669 301.986 120.485V117.775C301.986 117.591 302.138 117.439 302.322 117.439C302.511 117.439 302.658 117.591 302.658 117.775V120.485C302.658 120.669 302.511 120.822 302.322 120.822ZM95.5117 119.46H100.078L97.7937 116.598L95.5117 119.46ZM100.949 120.297H94.6387C94.4767 120.297 94.3347 120.207 94.2617 120.06C94.1937 119.918 94.2147 119.744 94.3137 119.618L97.4687 115.666C97.5477 115.566 97.6687 115.508 97.7937 115.508C97.9197 115.508 98.0407 115.566 98.1247 115.666L101.275 119.618C101.375 119.744 101.395 119.918 101.327 120.06C101.259 120.207 101.112 120.297 100.949 120.297ZM95.5107 122.922L97.7937 125.785L100.078 122.922H95.5107ZM97.7937 126.874C97.6677 126.874 97.5477 126.816 97.4687 126.716L94.3137 122.765C94.2137 122.638 94.1937 122.465 94.2617 122.323C94.3347 122.175 94.4767 122.086 94.6397 122.086H100.949C101.112 122.086 101.259 122.176 101.327 122.323C101.395 122.465 101.374 122.638 101.274 122.765L98.1247 126.716C98.0407 126.816 97.9187 126.874 97.7937 126.874ZM75.5757 127.448H89.7897V114.878H75.5757V127.448ZM90.2097 128.284H75.1607C74.9307 128.284 74.7407 128.094 74.7407 127.869V114.456C74.7407 114.225 74.9307 114.036 75.1607 114.036H90.2097C90.4397 114.036 90.6297 114.225 90.6297 114.456V127.87C90.6297 128.096 90.4397 128.285 90.2097 128.285V128.284ZM70.5627 131.641H104.843V110.69H70.5627V131.641ZM105.258 132.478H70.1427C69.9127 132.478 69.7227 132.288 69.7227 132.057V110.262C69.7227 110.031 69.9127 109.847 70.1427 109.847H105.258C105.489 109.847 105.678 110.031 105.678 110.262V132.057C105.678 132.289 105.489 132.478 105.258 132.478Z" fill="#192848"/>
<path fill-rule="evenodd" clip-rule="evenodd" d="M95.5078 122.893L97.7908 125.755L100.075 122.893H95.5078ZM95.5078 119.43H100.075L97.7908 116.567L95.5078 119.43ZM496.899 121.136L487.141 121.12V120.141L496.899 120.157V121.136ZM516.415 121.169L506.658 121.153V120.174L516.415 120.19V121.169ZM535.935 121.202L526.177 121.187V120.208L535.935 120.224V121.202ZM507.158 114.304L497.401 114.288V113.31L507.158 113.325V114.304ZM526.188 114.337L516.431 114.321V113.343L526.188 113.359V114.337ZM507.135 128.001L497.378 127.985V127.006L507.135 127.022V128.001ZM526.165 128.034L516.408 128.018V127.039L526.165 127.055V128.034Z" fill="#192848"/>
<path fill-rule="evenodd" clip-rule="evenodd" d="M497.851 136.302H496.874L496.927 105.972L497.903 105.978L497.851 136.302ZM507.121 136.317H506.144L506.197 105.988L507.173 105.993L507.121 136.317ZM516.88 136.333H515.904L515.957 106.004L516.933 106.009L516.88 136.333ZM526.64 136.351H525.664L525.716 106.021L526.693 106.027L526.64 136.351ZM407.733 126.276H425.501L414.504 113.196H396.852L407.733 126.276ZM426.409 127.123H407.534C407.413 127.123 407.292 127.066 407.214 126.966L395.949 113.432L384.691 126.966L384.045 126.429L395.629 112.506C395.708 112.406 395.829 112.354 395.949 112.354H414.699C414.824 112.354 414.945 112.406 415.024 112.501L426.729 126.429C426.834 126.549 426.86 126.729 426.787 126.876C426.718 127.024 426.571 127.123 426.409 127.123ZM426.694 129.971H407.34C407.109 129.971 406.92 129.781 406.92 129.551C406.92 129.319 407.109 129.129 407.34 129.129H426.693C426.923 129.129 427.113 129.319 427.113 129.55C427.113 129.782 426.923 129.971 426.693 129.971M139.215 52.1661H156.982L145.986 39.0861H128.334L139.215 52.1661ZM157.891 53.0081H139.021C138.895 53.0081 138.774 52.9561 138.695 52.8561L127.431 39.3221L116.172 52.8561L115.527 52.3191L127.11 38.3961C127.189 38.2961 127.31 38.2441 127.43 38.2441H146.185C146.305 38.2441 146.426 38.2961 146.505 38.3911L158.21 52.3191C158.315 52.4401 158.34 52.6191 158.267 52.7661C158.199 52.9141 158.052 53.0081 157.89 53.0081H157.891ZM158.176 55.8601H138.818C138.592 55.8601 138.403 55.6711 138.403 55.4401C138.403 55.2081 138.592 55.0191 138.818 55.0191H158.176C158.406 55.0191 158.596 55.2091 158.596 55.4391C158.596 55.6711 158.406 55.8601 158.176 55.8601ZM341.64 63.9041H356.85V47.8501H341.64V63.9041ZM357.255 64.7091H341.24C341.02 64.7091 340.841 64.5301 340.841 64.3091V47.4501C340.841 47.2301 341.02 47.0501 341.241 47.0501H357.255C357.475 47.0501 357.654 47.2301 357.654 47.4501V64.3101C357.654 64.5301 357.475 64.7101 357.254 64.7101L357.255 64.7091Z" fill="#192848"/>
<path fill-rule="evenodd" clip-rule="evenodd" d="M369.265 64.71H357.255V63.905H368.865V47.856H357.255V47.051H369.265C369.485 47.051 369.663 47.23 369.663 47.451V64.31C369.663 64.53 369.485 64.71 369.265 64.71ZM341.241 64.71H329.231C329.011 64.71 328.828 64.53 328.828 64.31V47.45C328.828 47.23 329.011 47.05 329.232 47.05H341.242V47.856H329.631V63.905H341.241V64.71ZM343.645 61.1H354.857V53.875H343.645V61.1ZM342.208 39.025H346.706L356.29 39.014L351.503 34.226C351.43 34.146 351.388 34.046 351.388 33.942V30.195H347.11V33.942C347.11 34.047 347.063 34.147 346.99 34.226L342.208 39.025ZM346.706 39.83H341.242C341.079 39.83 340.932 39.73 340.869 39.577C340.811 39.43 340.843 39.256 340.959 39.14L346.307 33.773V29.795C346.307 29.575 346.485 29.395 346.706 29.395H351.786C352.007 29.395 352.186 29.575 352.186 29.795V33.773L357.54 39.13C357.655 39.24 357.687 39.414 357.624 39.561C357.561 39.714 357.419 39.814 357.256 39.814L346.706 39.83ZM343.64 51.465H354.852V50.66H343.64V51.465Z" fill="#192848"/>
<path fill-rule="evenodd" clip-rule="evenodd" d="M331.635 51.4651H338.842V50.6601H331.635V51.4651ZM359.653 51.4651H366.86V50.6601H359.653V51.4651ZM238.467 46.7251C239.327 46.7251 240.031 47.3141 240.031 48.0351C240.031 48.7551 239.327 49.3451 238.467 49.3451C237.606 49.3451 236.902 48.7551 236.902 48.0351C236.902 47.3141 237.606 46.7251 238.467 46.7251Z" fill="#192848"/>
<path fill-rule="evenodd" clip-rule="evenodd" d="M224.789 59.82H241.979V34.28H224.789V59.82ZM242.372 60.479H224.4C224.185 60.479 224.012 60.331 224.012 60.147V33.954C224.012 33.77 224.185 33.627 224.4 33.627H242.372C242.588 33.627 242.766 33.77 242.766 33.954V60.147C242.766 60.331 242.588 60.479 242.372 60.479ZM253.311 50.655H254.093V36.243H253.311V50.655ZM245.427 50.655H246.209V36.243H245.427V50.655Z" fill="#192848"/>
<path fill-rule="evenodd" clip-rule="evenodd" d="M246.285 43.778H261.911V43.125H246.285V43.778Z" fill="#192848"/>
<path fill-rule="evenodd" clip-rule="evenodd" d="M261.908 50.6532H246.282V50.0012H261.514V36.8992H246.282V36.2402H261.908C262.123 36.2402 262.296 36.3872 262.296 36.5712V50.3262C262.296 50.5052 262.123 50.6532 261.908 50.6532ZM18.4776 56.8652H43.4576C43.4576 59.4802 41.3416 61.6062 38.7326 61.6062H23.2066C20.5926 61.6062 18.4766 59.4802 18.4766 56.8662" fill="#192848"/>
<path fill-rule="evenodd" clip-rule="evenodd" d="M18.8166 50.4352V56.1912C18.8166 58.9852 21.1106 61.2642 23.9296 61.2642H38.0176C40.8356 61.2642 43.1246 58.9852 43.1246 56.1912V50.4352H18.8166ZM38.0166 61.9422H23.9306C20.7386 61.9422 18.1406 59.3642 18.1406 56.1922V50.0982C18.1406 49.9082 18.2926 49.7562 18.4816 49.7562H43.4616C43.6506 49.7562 43.8016 49.9092 43.8016 50.0982V56.1912C43.8016 59.3642 41.2096 61.9422 38.0186 61.9422H38.0166ZM27.6076 40.2842H35.0036C34.8296 38.3892 33.2396 36.9002 31.3076 36.9002C30.1586 36.9002 29.0876 37.4212 28.3796 38.3322C27.9326 38.9002 27.6706 39.5682 27.6076 40.2842ZM35.3546 40.9622H27.2556C27.0666 40.9622 26.9196 40.8102 26.9196 40.6202C26.9196 39.6312 27.2396 38.6952 27.8496 37.9162C28.6896 36.8372 29.9486 36.2222 31.3076 36.2222C33.7276 36.2222 35.6966 38.1952 35.6966 40.6202C35.6966 40.8102 35.5436 40.9622 35.3546 40.9622Z" fill="#192848"/>
<path fill-rule="evenodd" clip-rule="evenodd" d="M39.7484 49.9822H39.0714V36.5382C39.0714 34.4972 37.4074 32.8392 35.3604 32.8392C33.3134 32.8392 31.6434 34.4972 31.6434 36.5392H30.9664C30.9664 34.1232 32.9404 32.1602 35.3604 32.1602C37.7804 32.1602 39.7484 34.1232 39.7484 36.5382V49.9822ZM28.9454 46.7142C28.7564 46.7142 28.6094 46.5622 28.6094 46.3772V43.6672C28.6094 43.4832 28.7564 43.3312 28.9454 43.3312C29.1294 43.3312 29.2814 43.4832 29.2814 43.6682V46.3782C29.2814 46.5622 29.1294 46.7142 28.9454 46.7142ZM30.9704 46.7142C30.7864 46.7142 30.6344 46.5622 30.6344 46.3772V43.6672C30.6344 43.4832 30.7864 43.3312 30.9694 43.3312C31.1534 43.3312 31.3054 43.4832 31.3054 43.6682V46.3782C31.3054 46.5622 31.1534 46.7142 30.9694 46.7142M33.6714 46.7142C33.4824 46.7142 33.3354 46.5622 33.3354 46.3772V43.6672C33.3354 43.4832 33.4824 43.3312 33.6714 43.3312C33.8554 43.3312 34.0074 43.4832 34.0074 43.6682V46.3782C34.0074 46.5622 33.8554 46.7142 33.6714 46.7142ZM463.149 45.3502H467.715L465.432 42.4882L463.149 45.3502ZM468.587 46.1872H462.283C462.115 46.1872 461.973 46.0972 461.899 45.9502C461.836 45.8082 461.852 45.6342 461.952 45.5082L465.107 41.5572C465.185 41.4572 465.306 41.3992 465.432 41.3992C465.558 41.3992 465.679 41.4572 465.762 41.5572L468.912 45.5082C469.012 45.6342 469.032 45.8082 468.964 45.9502C468.896 46.0972 468.749 46.1872 468.587 46.1872ZM463.149 48.8132L465.432 51.6752L467.715 48.8132H463.149ZM465.432 52.7642C465.306 52.7642 465.185 52.7062 465.107 52.6062L461.952 48.6552C461.852 48.5282 461.836 48.3552 461.899 48.2132C461.973 48.0652 462.115 47.9762 462.283 47.9762H468.587C468.749 47.9762 468.897 48.0662 468.964 48.2132C469.033 48.3552 469.012 48.5282 468.912 48.6552L465.762 52.6062C465.679 52.7062 465.558 52.7642 465.432 52.7642ZM443.219 53.3382H457.433V40.7682H443.219V53.3382ZM457.847 54.1742H442.8C442.569 54.1742 442.38 53.9902 442.38 53.7592V40.3462C442.38 40.1152 442.569 39.9262 442.8 39.9262H457.848C458.079 39.9262 458.268 40.1152 458.268 40.3462V53.7602C458.268 53.9912 458.079 54.1752 457.848 54.1752L457.847 54.1742ZM438.201 57.5312H472.481V36.5802H438.201V57.5312ZM472.896 58.3682H437.78C437.549 58.3682 437.36 58.1782 437.36 57.9482V36.1522C437.36 35.9202 437.549 35.7362 437.78 35.7362H472.895C473.125 35.7362 473.315 35.9202 473.315 36.1522V57.9462C473.315 58.1782 473.125 58.3672 472.895 58.3672L472.896 58.3682Z" fill="#192848"/>
<path fill-rule="evenodd" clip-rule="evenodd" d="M463.149 48.783L465.432 51.645L467.715 48.783H463.149ZM463.149 45.322H467.715L465.432 42.459L463.149 45.322ZM186.052 286.233H201.263V270.179H186.052V286.233ZM201.667 287.038H185.653C185.433 287.038 185.254 286.858 185.254 286.632V269.78C185.254 269.559 185.432 269.38 185.653 269.38H201.667C201.887 269.38 202.067 269.559 202.067 269.78V286.633C202.067 286.86 201.887 287.039 201.667 287.039V287.038Z" fill="#192848"/>
<path fill-rule="evenodd" clip-rule="evenodd" d="M213.677 287.038H201.667V286.233H213.277V270.183H201.667V269.379H213.677C213.897 269.379 214.076 269.558 214.076 269.779V286.638C214.076 286.858 213.898 287.038 213.677 287.038ZM185.656 287.038H173.646C173.426 287.038 173.242 286.858 173.242 286.638V269.778C173.242 269.558 173.426 269.378 173.647 269.378H185.656V270.184H174.046V286.233H185.656V287.038ZM188.058 283.423H199.27V276.198H188.058V283.423ZM186.62 261.352H191.118L200.702 261.337L195.921 256.548C195.842 256.475 195.8 256.375 195.8 256.27V252.523H191.522V256.27C191.522 256.375 191.48 256.475 191.402 256.548L186.62 261.352ZM191.118 262.158H185.654C185.491 262.158 185.344 262.058 185.287 261.905C185.224 261.758 185.255 261.584 185.37 261.468L190.72 256.101V252.123C190.72 251.897 190.903 251.718 191.118 251.718H196.204C196.419 251.718 196.604 251.897 196.604 252.123V256.101L201.952 261.452C202.062 261.568 202.099 261.742 202.036 261.894C201.973 262.042 201.831 262.142 201.668 262.142L191.118 262.158ZM188.053 273.794H199.264V272.988H188.053V273.794Z" fill="#192848"/>
<path fill-rule="evenodd" clip-rule="evenodd" d="M176.047 273.794H183.254V272.988H176.047V273.794ZM204.066 273.794H211.273V272.988H204.066V273.794ZM287.129 279.194H312.114C312.114 281.809 309.998 283.934 307.384 283.934H291.858C289.244 283.934 287.129 281.809 287.129 279.194Z" fill="#192848"/>
<path fill-rule="evenodd" clip-rule="evenodd" d="M287.467 272.763V278.514C287.467 281.314 289.761 283.592 292.579 283.592H306.667C309.486 283.592 311.775 281.313 311.775 278.514V272.763H287.467ZM306.667 284.27H292.579C289.388 284.27 286.789 281.687 286.789 278.514V272.426C286.789 272.236 286.942 272.084 287.131 272.084H312.111C312.299 272.084 312.451 272.237 312.451 272.426V278.514C312.451 281.687 309.859 284.27 306.667 284.27ZM296.263 262.609H303.659C303.485 260.715 301.895 259.226 299.959 259.226C298.814 259.226 297.743 259.746 297.035 260.656C296.588 261.226 296.326 261.893 296.263 262.609ZM304.01 263.288H295.911C295.722 263.288 295.575 263.135 295.575 262.946C295.575 261.956 295.895 261.02 296.505 260.241C297.339 259.162 298.604 258.547 299.958 258.547C302.383 258.547 304.352 260.52 304.352 262.946C304.352 263.136 304.199 263.288 304.01 263.288Z" fill="#192848"/>
<path fill-rule="evenodd" clip-rule="evenodd" d="M308.402 272.308H307.724V258.864C307.724 256.823 306.06 255.165 304.013 255.165C301.966 255.165 300.297 256.823 300.297 258.865H299.625C299.625 256.449 301.593 254.486 304.013 254.486C306.433 254.486 308.401 256.449 308.401 258.864V272.308H308.402ZM297.596 269.043C297.412 269.043 297.26 268.89 297.26 268.706V265.996C297.26 265.812 297.412 265.659 297.596 265.659C297.785 265.659 297.932 265.812 297.932 265.996V268.706C297.932 268.89 297.785 269.043 297.596 269.043ZM299.622 269.043C299.434 269.043 299.287 268.89 299.287 268.706V265.996C299.287 265.812 299.434 265.659 299.623 265.659C299.807 265.659 299.959 265.812 299.959 265.996V268.706C299.959 268.89 299.807 269.043 299.623 269.043M302.322 269.043C302.138 269.043 301.986 268.89 301.986 268.706V265.996C301.986 265.812 302.138 265.659 302.322 265.659C302.511 265.659 302.658 265.812 302.658 265.996V268.706C302.658 268.89 302.511 269.043 302.322 269.043ZM95.5117 267.678H100.078L97.7937 264.816L95.5117 267.678ZM100.949 268.515H94.6387C94.4767 268.515 94.3347 268.425 94.2617 268.278C94.1937 268.131 94.2147 267.962 94.3137 267.836L97.4687 263.884C97.5477 263.784 97.6687 263.727 97.7937 263.727C97.9197 263.727 98.0407 263.784 98.1247 263.884L101.275 267.836C101.375 267.962 101.395 268.131 101.327 268.278C101.259 268.425 101.112 268.515 100.949 268.515ZM95.5107 271.141L97.7937 274.003L100.078 271.141H95.5107ZM97.7937 275.087C97.6677 275.087 97.5477 275.034 97.4687 274.934L94.3137 270.983C94.2137 270.856 94.1937 270.683 94.2617 270.541C94.3347 270.393 94.4767 270.304 94.6397 270.304H100.949C101.112 270.304 101.259 270.394 101.327 270.541C101.395 270.683 101.374 270.856 101.274 270.983L98.1247 274.934C98.0407 275.034 97.9187 275.087 97.7937 275.087ZM75.5757 275.666H89.7897V263.096H75.5757V275.666ZM90.2097 276.502H75.1607C74.9307 276.502 74.7407 276.312 74.7407 276.087V262.674C74.7407 262.443 74.9307 262.254 75.1607 262.254H90.2097C90.4397 262.254 90.6297 262.443 90.6297 262.674V276.087C90.6297 276.313 90.4397 276.502 90.2097 276.502ZM70.5617 279.86H104.842V258.908H70.5617V279.86ZM105.257 280.697H70.1427C69.9127 280.697 69.7227 280.507 69.7227 280.277V258.48C69.7227 258.248 69.9127 258.064 70.1427 258.064H105.258C105.489 258.064 105.678 258.248 105.678 258.48V280.274C105.678 280.506 105.489 280.695 105.258 280.695L105.257 280.697Z" fill="#192848"/>
<path fill-rule="evenodd" clip-rule="evenodd" d="M95.5078 271.111L97.7908 273.973L100.075 271.111H95.5078ZM95.5078 267.647H100.075L97.7908 264.785L95.5078 267.647ZM496.899 269.353L487.141 269.337V268.359L496.899 268.374V269.353ZM516.415 269.387L506.658 269.371V268.392L516.415 268.408V269.387ZM535.935 269.42L526.177 269.404V268.425L535.935 268.441V269.42ZM507.158 262.524L497.401 262.508V261.53L507.158 261.546V262.524ZM526.188 262.555L516.431 262.54V261.561L526.188 261.577V262.555ZM507.135 276.218L497.378 276.202V275.224L507.135 275.24V276.218ZM526.165 276.252L516.408 276.236V275.257L526.165 275.273V276.252Z" fill="#192848"/>
<path fill-rule="evenodd" clip-rule="evenodd" d="M497.852 284.52H496.875L496.928 254.191L497.904 254.196L497.852 284.52ZM507.122 284.535H506.145L506.198 254.206L507.174 254.211L507.122 284.535ZM516.881 284.55H515.905L515.958 254.221L516.934 254.226L516.881 284.55ZM526.641 284.568H525.665L525.717 254.239L526.694 254.244L526.641 284.568ZM407.734 274.494H425.502L414.505 261.414H396.853L407.734 274.494ZM426.41 275.336H407.535C407.414 275.336 407.293 275.284 407.215 275.184L395.95 261.65L384.692 275.184L384.046 274.647L395.63 260.724C395.709 260.624 395.83 260.572 395.95 260.572H414.7C414.825 260.572 414.946 260.624 415.025 260.719L426.73 274.647C426.835 274.768 426.861 274.947 426.788 275.094C426.719 275.242 426.572 275.336 426.41 275.336ZM426.695 278.189H407.341C407.11 278.189 406.921 277.999 406.921 277.768C406.921 277.536 407.11 277.347 407.341 277.347H426.694C426.924 277.347 427.114 277.537 427.114 277.767C427.114 277.999 426.924 278.189 426.694 278.189M140.051 200.387H157.819L146.822 187.306H129.171L140.052 200.386L140.051 200.387ZM158.727 201.229H139.857C139.731 201.229 139.61 201.176 139.531 201.076L128.267 187.543L117.009 201.076L116.363 200.539L127.947 186.616C128.026 186.516 128.147 186.464 128.267 186.464H147.022C147.142 186.464 147.263 186.516 147.342 186.611L159.047 200.534C159.152 200.66 159.178 200.839 159.105 200.987C159.036 201.134 158.889 201.229 158.727 201.229ZM159.014 204.082H139.656C139.431 204.082 139.236 203.892 139.236 203.661C139.236 203.429 139.431 203.24 139.656 203.24H159.014C159.245 203.24 159.434 203.43 159.434 203.66C159.434 203.892 159.245 204.082 159.014 204.082ZM342.48 212.125H357.691V196.07H342.481V212.124L342.48 212.125ZM358.09 212.93H342.076C341.856 212.93 341.676 212.751 341.676 212.525V195.67C341.676 195.449 341.856 195.27 342.076 195.27H358.09C358.31 195.27 358.49 195.449 358.49 195.67V212.524C358.49 212.75 358.31 212.93 358.09 212.93Z" fill="#192848"/>
<path fill-rule="evenodd" clip-rule="evenodd" d="M370.102 212.927H358.092V212.122H369.702V196.074H358.092V195.269H370.102C370.322 195.269 370.5 195.453 370.5 195.669V212.527C370.5 212.748 370.322 212.927 370.101 212.927M342.078 212.927H330.068C329.848 212.927 329.664 212.748 329.664 212.527V195.668C329.664 195.453 329.848 195.268 330.068 195.268H342.078V196.074H330.468V212.122H342.078V212.927ZM344.481 209.315H355.692V202.09H344.481V209.315ZM343.044 187.243H347.542L357.122 187.233L352.34 182.439C352.266 182.365 352.224 182.265 352.224 182.159V178.413H347.947V182.16C347.947 182.265 347.899 182.365 347.826 182.439L343.044 187.243ZM347.542 188.048H342.078C341.916 188.048 341.768 187.948 341.706 187.795C341.648 187.648 341.679 187.475 341.795 187.358L347.144 181.991V178.013C347.144 177.793 347.322 177.613 347.542 177.613H352.623C352.843 177.613 353.023 177.793 353.023 178.013V181.991L358.371 187.348C358.486 187.464 358.523 187.632 358.461 187.785C358.397 187.932 358.255 188.032 358.093 188.032L347.542 188.048ZM344.481 199.686H355.692V198.881H344.481V199.686Z" fill="#192848"/>
<path fill-rule="evenodd" clip-rule="evenodd" d="M332.469 199.686H339.676V198.881H332.469V199.686ZM360.488 199.686H367.695V198.881H360.488V199.686ZM239.302 194.942C240.163 194.942 240.866 195.532 240.866 196.252C240.866 196.973 240.163 197.562 239.302 197.562C238.442 197.562 237.738 196.973 237.738 196.252C237.738 195.532 238.441 194.942 239.302 194.942Z" fill="#192848"/>
<path fill-rule="evenodd" clip-rule="evenodd" d="M225.63 208.042H242.82V182.5H225.63V208.04V208.042ZM243.214 208.699H225.237C225.022 208.699 224.848 208.552 224.848 208.368V182.169C224.848 181.99 225.022 181.843 225.237 181.843H243.214C243.429 181.843 243.603 181.99 243.603 182.169V208.368C243.603 208.552 243.429 208.699 243.214 208.699ZM254.153 198.875H254.935V184.469H254.153V198.875ZM246.269 198.875H247.051V184.469H246.269V198.875Z" fill="#192848"/>
<path fill-rule="evenodd" clip-rule="evenodd" d="M247.113 191.993H262.744V191.341H247.113V191.993Z" fill="#192848"/>
<path fill-rule="evenodd" clip-rule="evenodd" d="M262.744 198.873H247.115V198.221H262.352V185.119H247.113V184.466H262.744C262.96 184.466 263.133 184.609 263.133 184.793V198.547C263.133 198.727 262.96 198.873 262.744 198.873ZM19.3125 205.086H44.2975C44.2975 207.701 42.1825 209.827 39.5675 209.827H24.0425C21.4295 209.827 19.3135 207.701 19.3135 205.086" fill="#192848"/>
<path fill-rule="evenodd" clip-rule="evenodd" d="M19.6546 198.655V204.406C19.6546 207.206 21.9486 209.484 24.7666 209.484H38.8546C41.6736 209.484 43.9616 207.206 43.9616 204.406V198.655H19.6546ZM38.8546 210.163H24.7666C21.5756 210.163 18.9766 207.579 18.9766 204.406V198.318C18.9766 198.128 19.1296 197.982 19.3186 197.982H44.2986C44.4866 197.982 44.6386 198.129 44.6386 198.318V204.406C44.6386 207.579 42.0466 210.163 38.8546 210.163ZM28.4476 188.501H35.8426C35.6696 186.607 34.0796 185.118 32.1476 185.118C30.9976 185.118 29.9276 185.638 29.2186 186.544C28.7726 187.117 28.5106 187.786 28.4476 188.501ZM36.1946 189.18H28.0956C27.9066 189.18 27.7596 189.027 27.7596 188.838C27.7596 187.848 28.0796 186.912 28.6896 186.133C29.5286 185.055 30.7886 184.439 32.1476 184.439C34.5676 184.439 36.5356 186.412 36.5356 188.838C36.5356 189.028 36.3836 189.18 36.1956 189.18" fill="#192848"/>
<path fill-rule="evenodd" clip-rule="evenodd" d="M40.5843 198.2H39.9073V184.756C39.9073 182.715 38.2433 181.057 36.1963 181.057C34.1493 181.057 32.4793 182.715 32.4793 184.757H31.8083C31.8083 182.341 33.7763 180.379 36.1963 180.379C38.6163 180.379 40.5843 182.341 40.5843 184.756V198.2ZM29.7813 194.932C29.5923 194.932 29.4453 194.78 29.4453 194.596V191.886C29.4453 191.702 29.5923 191.549 29.7813 191.549C29.9653 191.549 30.1173 191.702 30.1173 191.886V194.596C30.1173 194.78 29.9653 194.932 29.7813 194.932ZM31.8063 194.932C31.6173 194.932 31.4703 194.78 31.4703 194.596V191.886C31.4703 191.702 31.6173 191.549 31.8063 191.549C31.9903 191.549 32.1423 191.702 32.1423 191.886V194.596C32.1423 194.78 31.9903 194.932 31.8063 194.932ZM34.5073 194.932C34.3183 194.932 34.1713 194.78 34.1713 194.596V191.886C34.1713 191.702 34.3183 191.549 34.5073 191.549C34.6913 191.549 34.8433 191.702 34.8433 191.886V194.596C34.8433 194.78 34.6913 194.932 34.5073 194.932ZM463.985 193.568H468.552L466.269 190.705L463.985 193.568ZM469.423 194.405H463.119C462.951 194.405 462.809 194.315 462.736 194.168C462.668 194.026 462.689 193.852 462.789 193.726L465.943 189.774C466.022 189.674 466.143 189.616 466.269 189.616C466.395 189.616 466.515 189.674 466.599 189.774L469.749 193.726C469.849 193.852 469.869 194.026 469.801 194.168C469.733 194.315 469.586 194.405 469.423 194.405ZM463.985 197.03L466.269 199.893L468.552 197.03H463.985ZM466.269 200.977C466.143 200.977 466.022 200.924 465.943 200.824L462.789 196.872C462.689 196.746 462.668 196.572 462.736 196.43C462.81 196.283 462.951 196.194 463.119 196.194H469.423C469.586 196.194 469.733 196.283 469.801 196.43C469.869 196.572 469.848 196.746 469.749 196.872L466.599 200.824C466.515 200.924 466.395 200.977 466.269 200.977ZM444.05 201.555H458.264V188.985H444.05V201.555ZM458.684 202.392H443.635C443.405 202.392 443.215 202.202 443.215 201.976V188.564C443.215 188.332 443.405 188.143 443.635 188.143H458.684C458.914 188.143 459.104 188.333 459.104 188.563V201.976C459.104 202.203 458.914 202.392 458.684 202.392ZM439.037 205.749H473.317V184.796H439.037V205.749ZM473.732 206.586H438.617C438.387 206.586 438.197 206.396 438.197 206.165V184.37C438.197 184.139 438.387 183.954 438.617 183.954H473.732C473.963 183.954 474.152 184.139 474.152 184.37V206.165C474.152 206.396 473.963 206.586 473.732 206.586Z" fill="#192848"/>
<path fill-rule="evenodd" clip-rule="evenodd" d="M463.984 197.001L466.268 199.863L468.551 197.001H463.984ZM463.984 193.539H468.551L466.268 190.677L463.984 193.539ZM186.052 434.453H201.263V418.4H186.052V434.454V434.453ZM201.667 435.258H185.653C185.433 435.258 185.254 435.074 185.254 434.853V418C185.254 417.779 185.432 417.594 185.653 417.594H201.667C201.887 417.594 202.067 417.779 202.067 418V434.853C202.067 435.074 201.887 435.258 201.667 435.258Z" fill="#192848"/>
<path fill-rule="evenodd" clip-rule="evenodd" d="M213.677 435.255H201.667V434.45H213.277V418.402H201.667V417.596H213.677C213.897 417.596 214.076 417.776 214.076 417.996V434.856C214.076 435.076 213.897 435.256 213.676 435.256M185.656 435.255H173.646C173.426 435.255 173.242 435.076 173.242 434.855V417.996C173.242 417.776 173.426 417.596 173.647 417.596H185.656V418.402H174.046V434.45H185.656V435.255ZM188.058 431.643H199.27V424.419H188.058V431.643ZM186.62 409.57H191.118L200.702 409.555L195.921 404.767C195.842 404.693 195.8 404.593 195.8 404.487V400.741H191.522V404.488C191.522 404.593 191.48 404.693 191.402 404.767L186.62 409.571V409.57ZM191.118 410.376H185.654C185.491 410.376 185.344 410.276 185.287 410.123C185.224 409.976 185.255 409.803 185.37 409.686L190.72 404.319V400.341C190.72 400.121 190.903 399.936 191.118 399.936H196.204C196.419 399.936 196.604 400.12 196.604 400.341V404.319L201.952 409.676C202.062 409.786 202.099 409.96 202.036 410.107C201.973 410.26 201.831 410.36 201.668 410.36L191.118 410.376ZM188.053 422.014H199.264V421.209H188.053V422.014Z" fill="#192848"/>
<path fill-rule="evenodd" clip-rule="evenodd" d="M176.047 422.014H183.254V421.209H176.047V422.014ZM204.066 422.014H211.273V421.209H204.066V422.014ZM287.129 427.411H312.114C312.114 430.031 309.998 432.152 307.384 432.152H291.858C289.244 432.152 287.129 430.031 287.129 427.411Z" fill="#192848"/>
<path fill-rule="evenodd" clip-rule="evenodd" d="M287.467 420.98V426.737C287.467 429.531 289.761 431.81 292.579 431.81H306.667C309.486 431.81 311.775 429.531 311.775 426.737V420.981L287.467 420.98ZM306.667 432.489H292.579C289.388 432.489 286.789 429.91 286.789 426.737V420.644C286.789 420.454 286.942 420.302 287.131 420.302H312.111C312.299 420.302 312.451 420.455 312.451 420.644V426.737C312.451 429.91 309.859 432.489 306.667 432.489ZM296.263 410.83H303.659C303.485 408.935 301.895 407.446 299.959 407.446C298.814 407.446 297.743 407.967 297.035 408.878C296.588 409.446 296.326 410.119 296.263 410.83ZM304.01 411.509H295.911C295.722 411.509 295.575 411.356 295.575 411.166C295.575 410.177 295.895 409.241 296.505 408.462C297.339 407.383 298.604 406.768 299.958 406.768C302.383 406.768 304.352 408.741 304.352 411.166C304.352 411.356 304.199 411.509 304.01 411.509Z" fill="#192848"/>
<path fill-rule="evenodd" clip-rule="evenodd" d="M308.402 420.528H307.724V407.084C307.724 405.043 306.06 403.385 304.013 403.385C301.966 403.385 300.297 405.043 300.297 407.085H299.625C299.625 404.669 301.593 402.707 304.013 402.707C306.433 402.707 308.401 404.669 308.401 407.084V420.528H308.402ZM297.596 417.26C297.412 417.26 297.26 417.108 297.26 416.923V414.213C297.26 414.029 297.412 413.877 297.596 413.877C297.785 413.877 297.932 414.029 297.932 414.214V416.924C297.932 417.108 297.785 417.26 297.596 417.26ZM299.622 417.26C299.434 417.26 299.287 417.108 299.287 416.923V414.213C299.287 414.029 299.434 413.877 299.623 413.877C299.807 413.877 299.959 414.029 299.959 414.214V416.924C299.959 417.108 299.807 417.26 299.623 417.26M302.322 417.26C302.138 417.26 301.986 417.108 301.986 416.923V414.213C301.986 414.029 302.138 413.877 302.322 413.877C302.511 413.877 302.658 414.029 302.658 414.214V416.924C302.658 417.108 302.511 417.26 302.322 417.26ZM95.5117 415.896H100.078L97.7937 413.033L95.5117 415.896ZM100.949 416.732H94.6387C94.4767 416.732 94.3347 416.643 94.2617 416.496C94.1937 416.354 94.2147 416.18 94.3137 416.054L97.4687 412.102C97.5477 412.002 97.6687 411.944 97.7937 411.944C97.9197 411.944 98.0407 412.002 98.1247 412.102L101.275 416.054C101.375 416.18 101.395 416.354 101.327 416.496C101.259 416.643 101.112 416.732 100.949 416.732ZM95.5107 419.358L97.7937 422.221L100.078 419.358H95.5107ZM97.7937 423.31C97.6677 423.31 97.5477 423.252 97.4687 423.152L94.3137 419.2C94.2137 419.074 94.1937 418.9 94.2617 418.758C94.3347 418.611 94.4767 418.521 94.6397 418.521H100.949C101.112 418.521 101.259 418.611 101.327 418.758C101.395 418.9 101.374 419.074 101.274 419.2L98.1247 423.152C98.0407 423.252 97.9187 423.31 97.7937 423.31ZM75.5757 423.883H89.7897V411.313H75.5757V423.883ZM90.2097 424.725H75.1607C74.9307 424.725 74.7407 424.531 74.7407 424.305V410.892C74.7407 410.66 74.9307 410.471 75.1607 410.471H90.2097C90.4397 410.471 90.6297 410.661 90.6297 410.891V424.304C90.6297 424.531 90.4397 424.725 90.2097 424.725ZM70.5627 428.077H104.843V407.124H70.5627V428.077ZM105.258 428.914H70.1427C69.9127 428.914 69.7227 428.724 69.7227 428.493V406.698C69.7227 406.467 69.9127 406.282 70.1427 406.282H105.258C105.489 406.282 105.678 406.467 105.678 406.698V428.493C105.678 428.724 105.489 428.913 105.258 428.913V428.914Z" fill="#192848"/>
<path fill-rule="evenodd" clip-rule="evenodd" d="M95.5078 419.329L97.7908 422.191L100.075 419.329H95.5078ZM95.5078 415.868H100.075L97.7908 413.005L95.5078 415.868ZM519.347 418.488H523.914L521.631 415.626L519.347 418.488ZM524.785 419.325H518.481C518.313 419.325 518.171 419.235 518.098 419.088C518.03 418.941 518.051 418.772 518.151 418.646L521.305 414.695C521.384 414.595 521.505 414.537 521.631 414.537C521.757 414.537 521.877 414.595 521.961 414.695L525.111 418.646C525.211 418.772 525.231 418.941 525.163 419.088C525.095 419.236 524.948 419.325 524.785 419.325ZM519.347 421.951L521.631 424.813L523.914 421.951H519.347ZM521.631 425.897C521.505 425.897 521.384 425.844 521.305 425.744L518.151 421.793C518.051 421.666 518.03 421.493 518.098 421.351C518.172 421.203 518.313 421.109 518.481 421.109H524.785C524.948 421.109 525.095 421.203 525.163 421.351C525.231 421.493 525.21 421.666 525.111 421.793L521.961 425.744C521.877 425.844 521.757 425.897 521.631 425.897ZM499.417 426.476H513.631V413.906H499.417V426.476ZM514.047 427.312H498.997C498.767 427.312 498.577 427.123 498.577 426.897V413.484C498.577 413.253 498.767 413.064 498.997 413.064H514.047C514.277 413.064 514.466 413.253 514.466 413.484V426.897C514.466 427.123 514.277 427.312 514.046 427.312H514.047ZM494.394 430.664H528.674V409.712H494.394V430.664ZM529.094 431.506H493.98C493.749 431.506 493.56 431.316 493.56 431.086V409.29C493.56 409.058 493.749 408.874 493.98 408.874H529.095C529.325 408.874 529.515 409.058 529.515 409.29V431.084C529.515 431.316 529.325 431.505 529.095 431.505L529.094 431.506Z" fill="#192848"/>
<path fill-rule="evenodd" clip-rule="evenodd" d="M519.347 421.921L521.631 424.784L523.914 421.921H519.347ZM519.347 418.46H523.914L521.631 415.598L519.347 418.46ZM407.732 422.713H425.5L414.503 409.632H396.851L407.732 422.712V422.713ZM426.408 423.554H407.533C407.412 423.554 407.291 423.502 407.213 423.402L395.948 409.868L384.69 423.402L384.044 422.865L395.628 408.942C395.707 408.842 395.828 408.79 395.948 408.79H414.698C414.823 408.79 414.944 408.842 415.023 408.937L426.728 422.865C426.833 422.986 426.859 423.165 426.786 423.312C426.717 423.46 426.57 423.554 426.408 423.554ZM426.693 426.407H407.339C407.108 426.407 406.919 426.217 406.919 425.986C406.919 425.754 407.108 425.565 407.339 425.565H426.692C426.922 425.565 427.112 425.755 427.112 425.985C427.112 426.217 426.922 426.407 426.692 426.407M140.887 348.605H158.655L147.658 335.524H130.006L140.887 348.604V348.605ZM159.563 349.452H140.693C140.567 349.452 140.446 349.394 140.368 349.294L129.104 335.761L117.844 349.294L117.199 348.757L128.783 334.835C128.863 334.735 128.983 334.682 129.103 334.682H147.858C147.978 334.682 148.099 334.735 148.178 334.829L159.883 348.757C159.988 348.878 160.014 349.057 159.941 349.205C159.873 349.352 159.726 349.452 159.563 349.452ZM159.845 352.3H140.493C140.262 352.3 140.073 352.11 140.073 351.878C140.073 351.647 140.262 351.458 140.493 351.458H159.845C160.076 351.458 160.265 351.647 160.265 351.878C160.265 352.11 160.076 352.3 159.845 352.3ZM343.313 360.34H358.523V344.286H343.313V360.34ZM358.928 361.145H342.914C342.694 361.145 342.514 360.966 342.514 360.745V343.887C342.514 343.671 342.694 343.487 342.914 343.487H358.928C359.143 343.487 359.327 343.671 359.327 343.887V360.745C359.327 360.966 359.143 361.145 358.928 361.145Z" fill="#192848"/>
<path fill-rule="evenodd" clip-rule="evenodd" d="M370.933 361.148H358.923V360.343H370.534V344.294H358.924V343.489H370.934C371.154 343.489 371.332 343.669 371.332 343.889V360.749C371.332 360.969 371.154 361.148 370.933 361.148ZM342.913 361.148H330.903C330.683 361.148 330.5 360.969 330.5 360.748V343.89C330.5 343.67 330.683 343.49 330.904 343.49H342.914V344.295H331.303V360.344H342.913V361.148ZM345.312 357.536H356.524V350.311H345.312V357.536ZM343.879 335.463H348.377L357.957 335.453L353.175 330.659C353.101 330.585 353.059 330.485 353.059 330.379V326.633H348.781V330.38C348.781 330.485 348.734 330.585 348.661 330.659L343.879 335.463ZM348.377 336.268H342.913C342.75 336.268 342.603 336.168 342.54 336.015C342.477 335.868 342.514 335.695 342.63 335.579L347.978 330.212V326.234C347.978 326.007 348.157 325.828 348.378 325.828H353.458C353.678 325.828 353.857 326.008 353.857 326.234V330.212L359.211 335.568C359.321 335.684 359.358 335.852 359.295 336C359.232 336.152 359.09 336.252 358.927 336.252L348.377 336.268ZM345.312 347.901H356.524V347.096H345.312V347.901Z" fill="#192848"/>
<path fill-rule="evenodd" clip-rule="evenodd" d="M333.304 347.901H340.511V347.096H333.304V347.901ZM361.328 347.901H368.534V347.096H361.328V347.901ZM240.138 343.16C240.998 343.16 241.702 343.75 241.702 344.47C241.702 345.191 240.999 345.78 240.138 345.78C239.278 345.78 238.574 345.191 238.574 344.47C238.574 343.75 239.277 343.16 240.138 343.16Z" fill="#192848"/>
<path fill-rule="evenodd" clip-rule="evenodd" d="M226.462 356.262H243.652V330.722H226.462V356.262ZM244.046 356.915H226.074C225.854 356.915 225.68 356.767 225.68 356.589V330.389C225.68 330.206 225.853 330.064 226.074 330.064H244.046C244.261 330.064 244.434 330.206 244.434 330.39V356.589C244.434 356.767 244.261 356.915 244.046 356.915ZM254.984 347.091H255.766V332.684H254.984V347.091ZM247.101 347.091H247.883V332.684H247.101V347.091Z" fill="#192848"/>
<path fill-rule="evenodd" clip-rule="evenodd" d="M247.953 340.214H263.579V339.561H247.953V340.214Z" fill="#192848"/>
<path fill-rule="evenodd" clip-rule="evenodd" d="M263.581 347.091H247.955V346.439H263.193V333.337H247.955V332.685H263.581C263.796 332.685 263.975 332.827 263.975 333.011V346.765C263.975 346.945 263.796 347.091 263.581 347.091ZM20.1494 353.304H45.1344C45.1344 355.924 43.0184 358.044 40.4044 358.044H24.8784C22.2644 358.044 20.1494 355.924 20.1494 353.304Z" fill="#192848"/>
<path fill-rule="evenodd" clip-rule="evenodd" d="M20.4895 346.873V352.624C20.4895 355.424 22.7835 357.702 25.6015 357.702H39.6895C42.5085 357.702 44.7965 355.424 44.7965 352.624V346.874H20.4895V346.873ZM39.6895 358.381H25.6025C22.4115 358.381 19.8125 355.797 19.8125 352.624V346.536C19.8125 346.346 19.9655 346.194 20.1545 346.194H45.1345C45.3225 346.194 45.4745 346.347 45.4745 346.536V352.624C45.4745 355.797 42.8815 358.381 39.6895 358.381ZM29.2825 336.72H36.6785C36.5055 334.825 34.9145 333.336 32.9785 333.336C31.8335 333.336 30.7635 333.856 30.0545 334.767C29.6085 335.335 29.3455 336.004 29.2825 336.719M37.0305 337.399H28.9305C28.7425 337.399 28.5955 337.246 28.5955 337.056C28.5955 336.066 28.9155 335.13 29.5245 334.352C30.3645 333.272 31.6245 332.657 32.9785 332.657C35.4035 332.657 37.3715 334.63 37.3715 337.057C37.3715 337.246 37.2195 337.399 37.0305 337.399Z" fill="#192848"/>
<path fill-rule="evenodd" clip-rule="evenodd" d="M41.4192 346.418H40.7422V332.974C40.7422 330.932 39.0783 329.274 37.0323 329.274C34.9843 329.274 33.3153 330.932 33.3153 332.974H32.6433C32.6433 330.559 34.6123 328.596 37.0313 328.596C39.4513 328.596 41.4192 330.559 41.4192 332.974V346.418ZM30.6173 343.15C30.4333 343.15 30.2812 342.998 30.2812 342.814V340.104C30.2812 339.914 30.4333 339.767 30.6173 339.767C30.8063 339.767 30.9532 339.914 30.9532 340.104V342.814C30.9532 342.998 30.8063 343.15 30.6173 343.15ZM32.6413 343.15C32.4533 343.15 32.3063 342.998 32.3063 342.814V340.104C32.3063 339.914 32.4533 339.767 32.6423 339.767C32.8253 339.767 32.9783 339.914 32.9783 340.104V342.814C32.9783 342.998 32.8243 343.15 32.6413 343.15ZM35.3432 343.15C35.1532 343.15 35.0073 342.998 35.0073 342.814V340.104C35.0073 339.914 35.1542 339.767 35.3432 339.767C35.5262 339.767 35.6792 339.914 35.6792 340.104V342.814C35.6792 342.998 35.5262 343.15 35.3432 343.15ZM464.824 341.789H469.39L467.107 338.926L464.824 341.789ZM470.261 342.625H463.952C463.79 342.625 463.648 342.535 463.574 342.388C463.506 342.241 463.527 342.068 463.627 341.946L466.781 337.995C466.861 337.895 466.981 337.837 467.107 337.837C467.233 337.837 467.354 337.895 467.437 337.995L470.587 341.946C470.687 342.067 470.707 342.241 470.639 342.388C470.571 342.536 470.424 342.625 470.261 342.625ZM464.824 345.251L467.107 348.113L469.39 345.251H464.824ZM467.107 349.197C466.981 349.197 466.86 349.145 466.781 349.045L463.627 345.093C463.527 344.967 463.507 344.793 463.574 344.651C463.648 344.504 463.79 344.409 463.952 344.409H470.262C470.424 344.409 470.572 344.504 470.639 344.651C470.708 344.793 470.687 344.967 470.587 345.093L467.437 349.045C467.354 349.145 467.233 349.197 467.107 349.197ZM444.888 349.777H459.102V337.206H444.888V349.776V349.777ZM459.522 350.613H444.474C444.243 350.613 444.054 350.423 444.054 350.192V336.785C444.054 336.553 444.243 336.364 444.474 336.364H459.522C459.753 336.364 459.942 336.554 459.942 336.784V350.192C459.942 350.423 459.753 350.612 459.522 350.612V350.613ZM439.876 353.965H474.156V333.012H439.876V353.965ZM474.571 354.806H439.456C439.225 354.806 439.036 354.617 439.036 354.386V332.59C439.036 332.358 439.225 332.174 439.456 332.174H474.571C474.801 332.174 474.991 332.358 474.991 332.59V354.384C474.991 354.616 474.801 354.805 474.571 354.805V354.806Z" fill="#192848"/>
<path fill-rule="evenodd" clip-rule="evenodd" d="M464.823 345.218L467.106 348.081L469.389 345.218H464.823ZM464.823 341.758H469.389L467.106 338.895L464.823 341.758ZM186.052 582.669H201.263V566.615H186.052V582.669ZM201.667 583.474H185.653C185.433 583.474 185.254 583.294 185.254 583.074V566.22C185.254 565.994 185.432 565.815 185.653 565.815H201.667C201.887 565.815 202.067 565.994 202.067 566.22V583.074C202.067 583.294 201.887 583.474 201.667 583.474Z" fill="#192848"/>
<path fill-rule="evenodd" clip-rule="evenodd" d="M213.677 583.473H201.667V582.668H213.277V566.62H201.667V565.815H213.677C213.897 565.815 214.076 565.993 214.076 566.215V583.073C214.076 583.294 213.898 583.473 213.677 583.473ZM185.656 583.473H173.646C173.426 583.473 173.242 583.294 173.242 583.073V566.214C173.242 565.994 173.426 565.814 173.647 565.814H185.656V566.62H174.046V582.668H185.656V583.473ZM188.058 579.864H199.27V572.64H188.058V579.864ZM186.62 557.79H191.118L200.702 557.775L195.921 552.987C195.842 552.913 195.8 552.813 195.8 552.707V548.961H191.522V552.708C191.522 552.813 191.48 552.913 191.402 552.987L186.62 557.791V557.79ZM191.118 558.596H185.654C185.491 558.596 185.344 558.496 185.287 558.343C185.224 558.196 185.255 558.023 185.37 557.907L190.72 552.539V548.562C190.72 548.341 190.903 548.156 191.118 548.156H196.204C196.419 548.156 196.604 548.341 196.604 548.562V552.539L201.952 557.891C202.062 558.007 202.099 558.181 202.036 558.333C201.973 558.48 201.831 558.58 201.668 558.58L191.118 558.596ZM188.053 570.23H199.264V569.425H188.053V570.23Z" fill="#192848"/>
<path fill-rule="evenodd" clip-rule="evenodd" d="M176.047 570.23H183.254V569.425H176.047V570.23ZM204.066 570.23H211.273V569.425H204.066V570.23ZM287.129 575.632H312.114C312.114 578.247 309.998 580.373 307.384 580.373H291.858C289.244 580.373 287.129 578.246 287.129 575.632Z" fill="#192848"/>
<path fill-rule="evenodd" clip-rule="evenodd" d="M287.467 569.201V574.952C287.467 577.752 289.761 580.03 292.579 580.03H306.667C309.486 580.03 311.775 577.752 311.775 574.952V569.202H287.467V569.201ZM306.667 580.709H292.579C289.388 580.709 286.789 578.125 286.789 574.952V568.864C286.789 568.674 286.942 568.522 287.131 568.522H312.111C312.299 568.522 312.451 568.675 312.451 568.864V574.952C312.451 578.125 309.859 580.709 306.667 580.709ZM296.263 559.047H303.659C303.485 557.153 301.895 555.664 299.959 555.664C298.814 555.664 297.743 556.184 297.035 557.095C296.588 557.663 296.326 558.332 296.263 559.047ZM304.01 559.727H295.911C295.722 559.727 295.575 559.573 295.575 559.384C295.575 558.394 295.895 557.458 296.505 556.679C297.339 555.601 298.604 554.985 299.958 554.985C302.383 554.985 304.352 556.958 304.352 559.385C304.352 559.573 304.199 559.727 304.01 559.727Z" fill="#192848"/>
<path fill-rule="evenodd" clip-rule="evenodd" d="M308.402 568.746H307.724V555.302C307.724 553.261 306.06 551.603 304.013 551.603C301.966 551.603 300.297 553.261 300.297 555.303H299.625C299.625 552.887 301.593 550.925 304.013 550.925C306.433 550.925 308.401 552.887 308.401 555.302V568.746H308.402ZM297.596 565.478C297.412 565.478 297.26 565.326 297.26 565.142V562.432C297.26 562.248 297.412 562.095 297.596 562.095C297.785 562.095 297.932 562.248 297.932 562.432V565.142C297.932 565.326 297.785 565.478 297.596 565.478ZM299.622 565.478C299.434 565.478 299.287 565.326 299.287 565.142V562.432C299.287 562.248 299.434 562.095 299.623 562.095C299.807 562.095 299.959 562.248 299.959 562.432V565.142C299.959 565.326 299.807 565.478 299.623 565.478M302.322 565.478C302.138 565.478 301.986 565.326 301.986 565.142V562.432C301.986 562.248 302.138 562.095 302.322 562.095C302.511 562.095 302.658 562.248 302.658 562.432V565.142C302.658 565.326 302.511 565.478 302.322 565.478ZM95.5117 564.114H100.078L97.7937 561.251L95.5117 564.114ZM100.949 564.951H94.6387C94.4767 564.951 94.3347 564.861 94.2617 564.714C94.1937 564.572 94.2147 564.398 94.3137 564.272L97.4687 560.32C97.5477 560.22 97.6687 560.162 97.7937 560.162C97.9197 560.162 98.0407 560.22 98.1247 560.32L101.275 564.272C101.375 564.398 101.395 564.572 101.327 564.714C101.259 564.861 101.112 564.951 100.949 564.951ZM95.5107 567.576L97.7937 570.439L100.078 567.576H95.5107ZM97.7937 571.523C97.6677 571.523 97.5477 571.47 97.4687 571.37L94.3137 567.418C94.2137 567.292 94.1937 567.118 94.2617 566.976C94.3347 566.829 94.4767 566.74 94.6397 566.74H100.949C101.112 566.74 101.259 566.829 101.327 566.976C101.395 567.118 101.374 567.292 101.274 567.418L98.1247 571.37C98.0407 571.47 97.9187 571.523 97.7937 571.523ZM75.5757 572.101H89.7897V559.531H75.5757V572.101ZM90.2097 572.938H75.1607C74.9307 572.938 74.7407 572.748 74.7407 572.522V559.11C74.7407 558.878 74.9307 558.689 75.1607 558.689H90.2097C90.4397 558.689 90.6297 558.879 90.6297 559.109V572.522C90.6297 572.749 90.4397 572.938 90.2097 572.938ZM70.5627 576.295H104.843V555.342H70.5627V576.295ZM105.258 577.132H70.1427C69.9127 577.132 69.7227 576.942 69.7227 576.711V554.916C69.7227 554.685 69.9127 554.501 70.1427 554.501H105.258C105.489 554.501 105.678 554.685 105.678 554.916V576.711C105.678 576.942 105.489 577.131 105.258 577.131V577.132Z" fill="#192848"/>
<path fill-rule="evenodd" clip-rule="evenodd" d="M95.5078 567.546L97.7908 570.409L100.075 567.546H95.5078ZM95.5078 564.086H100.075L97.7908 561.223L95.5078 564.086ZM496.899 565.792L487.141 565.776V564.797L496.899 564.813V565.792ZM516.415 565.822L506.658 565.807V564.828L516.415 564.844V565.822ZM535.935 565.856L526.177 565.84V564.862L535.935 564.877V565.856ZM507.158 558.96L497.401 558.944V557.965L507.158 557.981V558.96ZM526.188 558.994L516.431 558.978V557.999L526.188 558.015V558.994ZM507.135 572.657L497.378 572.641V571.662L507.135 571.678V572.657ZM526.165 572.688L516.408 572.672V571.693L526.165 571.709V572.688Z" fill="#192848"/>
<path fill-rule="evenodd" clip-rule="evenodd" d="M497.85 580.958H496.873L496.926 550.629L497.902 550.634L497.85 580.958ZM507.12 580.971H506.143L506.196 550.642L507.172 550.647L507.12 580.971ZM516.879 580.989H515.903L515.956 550.659L516.932 550.665L516.879 580.989ZM526.639 581.004H525.663L525.715 550.675L526.692 550.68L526.639 581.004ZM407.732 570.93H425.5L414.503 557.85H396.851L407.732 570.93ZM426.408 571.772H407.533C407.412 571.772 407.291 571.719 407.213 571.619L395.948 558.086L384.69 571.619L384.044 571.083L395.628 557.16C395.707 557.06 395.828 557.007 395.948 557.007H414.698C414.823 557.007 414.944 557.06 415.023 557.155L426.728 571.083C426.833 571.203 426.859 571.383 426.786 571.53C426.717 571.677 426.57 571.772 426.408 571.772ZM426.693 574.628H407.339C407.108 574.628 406.919 574.438 406.919 574.207C406.919 573.975 407.108 573.786 407.339 573.786H426.692C426.922 573.786 427.112 573.976 427.112 574.206C427.112 574.438 426.922 574.628 426.692 574.628M141.723 496.822H159.49L148.494 483.742H130.842L141.723 496.822ZM160.399 497.664H141.529C141.403 497.664 141.282 497.612 141.203 497.512L129.939 483.978L118.68 497.512L118.035 496.975L129.619 483.052C129.698 482.952 129.819 482.9 129.939 482.9H148.689C148.814 482.9 148.935 482.952 149.014 483.047L160.719 496.97C160.824 497.096 160.849 497.275 160.776 497.422C160.708 497.57 160.561 497.664 160.399 497.664ZM160.684 500.517H141.331C141.1 500.517 140.911 500.327 140.911 500.097C140.911 499.865 141.1 499.675 141.331 499.675H160.684C160.914 499.675 161.104 499.865 161.104 500.096C161.104 500.328 160.914 500.517 160.684 500.517ZM344.147 508.561H359.358V492.507H344.148L344.147 508.561ZM359.763 509.361H343.748C343.528 509.361 343.349 509.181 343.349 508.966V492.107C343.349 491.887 343.528 491.707 343.749 491.707H359.763C359.983 491.707 360.161 491.887 360.161 492.107V508.967C360.161 509.182 359.983 509.361 359.763 509.361Z" fill="#192848"/>
<path fill-rule="evenodd" clip-rule="evenodd" d="M371.772 509.363H359.763V508.558H371.373V492.509H359.763V491.704H371.773C371.993 491.704 372.171 491.888 372.171 492.104V508.963C372.171 509.184 371.993 509.363 371.772 509.363ZM343.75 509.363H331.74C331.52 509.363 331.336 509.184 331.336 508.963V492.104C331.336 491.888 331.519 491.704 331.74 491.704H343.75V492.509H332.139V508.558H343.749V509.363H343.75ZM346.153 505.756H357.365V498.532H346.153V505.756ZM344.716 483.68H349.214L358.798 483.67L354.017 478.877C353.937 478.803 353.896 478.703 353.896 478.598V474.852H349.618V478.598C349.618 478.703 349.576 478.803 349.498 478.877L344.716 483.681V483.68ZM349.214 484.486H343.75C343.587 484.486 343.44 484.386 343.382 484.233C343.319 484.086 343.351 483.913 343.466 483.797L348.815 478.43V474.452C348.815 474.231 348.999 474.052 349.214 474.052H354.3C354.515 474.052 354.699 474.231 354.699 474.452V478.43L360.048 483.786C360.158 483.902 360.194 484.07 360.132 484.223C360.069 484.37 359.927 484.47 359.764 484.47L349.214 484.486ZM346.148 496.122H357.36V495.317H346.148V496.122Z" fill="#192848"/>
<path fill-rule="evenodd" clip-rule="evenodd" d="M334.141 496.122H341.347V495.317H334.141V496.122ZM362.164 496.122H369.371V495.317H362.164V496.122ZM240.978 491.38C241.839 491.38 242.542 491.97 242.542 492.69C242.542 493.412 241.839 494.001 240.978 494.001C240.112 494.001 239.414 493.411 239.414 492.691C239.414 491.97 240.112 491.381 240.978 491.381" fill="#192848"/>
<path fill-rule="evenodd" clip-rule="evenodd" d="M227.299 504.478H244.489V478.937H227.299V504.477V504.478ZM244.882 505.136H226.911C226.696 505.136 226.523 504.988 226.523 504.804V478.605C226.523 478.426 226.696 478.279 226.911 478.279H244.883C245.099 478.279 245.277 478.426 245.277 478.605V504.805C245.277 504.988 245.099 505.135 244.883 505.135L244.882 505.136ZM255.821 495.312H256.603V480.905H255.821V495.312ZM247.937 495.312H248.719V480.905H247.937V495.312Z" fill="#192848"/>
<path fill-rule="evenodd" clip-rule="evenodd" d="M248.793 488.434H264.419V487.782H248.793V488.434Z" fill="#192848"/>
<path fill-rule="evenodd" clip-rule="evenodd" d="M264.419 495.31H248.792V494.657H264.029V481.555H248.792V480.902H264.418C264.633 480.902 264.811 481.044 264.811 481.228V494.983C264.811 495.162 264.633 495.309 264.418 495.309M20.9893 501.522H45.9723C45.9723 504.137 43.8573 506.262 41.2433 506.262H25.7183C23.1043 506.262 20.9893 504.137 20.9893 501.522Z" fill="#192848"/>
<path fill-rule="evenodd" clip-rule="evenodd" d="M21.3225 495.09V500.842C21.3225 503.642 23.6155 505.92 26.4345 505.92H40.5225C43.3415 505.92 45.6295 503.641 45.6295 500.842V495.091H21.3225V495.09ZM40.5225 506.598H26.4345C23.2435 506.598 20.6445 504.02 20.6445 500.842V494.754C20.6445 494.564 20.7975 494.412 20.9865 494.412H45.9655C46.1545 494.412 46.3065 494.565 46.3065 494.754V500.842C46.3065 504.02 43.7135 506.598 40.5225 506.598ZM30.1155 484.94H37.5115C37.3375 483.045 35.7475 481.556 33.8115 481.556C32.6665 481.556 31.5955 482.077 30.8875 482.982C30.4405 483.556 30.1785 484.224 30.1155 484.94ZM37.8625 485.618H29.7635C29.5745 485.618 29.4275 485.466 29.4275 485.276C29.4275 484.287 29.7475 483.35 30.3575 482.572C31.1915 481.493 32.4565 480.877 33.8105 480.877C36.2355 480.877 38.2045 482.851 38.2045 485.277C38.2045 485.466 38.0515 485.618 37.8625 485.618Z" fill="#192848"/>
<path fill-rule="evenodd" clip-rule="evenodd" d="M42.2562 494.636H41.5792V481.192C41.5792 479.15 39.9152 477.493 37.8682 477.493C35.8212 477.493 34.1522 479.15 34.1522 481.193H33.4802C33.4802 478.777 35.4482 476.814 37.8682 476.814C40.2882 476.814 42.2562 478.777 42.2562 481.192V494.636ZM31.4532 491.368C31.2702 491.368 31.1172 491.215 31.1172 491.031V488.321C31.1172 488.137 31.2702 487.985 31.4532 487.985C31.6432 487.985 31.7892 488.137 31.7892 488.321V491.031C31.7892 491.215 31.6422 491.368 31.4532 491.368ZM33.4802 491.368C33.2912 491.368 33.1442 491.215 33.1442 491.031V488.321C33.1442 488.137 33.2912 487.985 33.4802 487.985C33.6642 487.985 33.8162 488.137 33.8162 488.321V491.031C33.8162 491.215 33.6642 491.368 33.4802 491.368ZM36.1792 491.368C35.9962 491.368 35.8432 491.215 35.8432 491.031V488.321C35.8432 488.137 35.9962 487.985 36.1792 487.985C36.3692 487.985 36.5152 488.137 36.5152 488.321V491.031C36.5152 491.215 36.3682 491.368 36.1792 491.368ZM465.66 490.006H470.226L467.943 487.144L465.66 490.006ZM471.097 490.843H464.788C464.626 490.843 464.484 490.753 464.41 490.606C464.342 490.464 464.363 490.29 464.463 490.164L467.617 486.212C467.697 486.112 467.817 486.055 467.943 486.055C468.069 486.055 468.19 486.112 468.273 486.212L471.423 490.164C471.523 490.29 471.543 490.464 471.475 490.606C471.407 490.753 471.26 490.843 471.097 490.843ZM465.66 493.468L467.943 496.331L470.226 493.468H465.66ZM467.943 497.42C467.817 497.42 467.696 497.362 467.617 497.262L464.463 493.311C464.363 493.184 464.343 493.011 464.41 492.869C464.484 492.721 464.626 492.632 464.788 492.632H471.098C471.26 492.632 471.408 492.722 471.475 492.869C471.544 493.011 471.523 493.184 471.423 493.311L468.273 497.262C468.19 497.362 468.069 497.42 467.943 497.42ZM445.724 497.994H459.938V485.418H445.724V497.994ZM460.358 498.83H445.31C445.079 498.83 444.89 498.64 444.89 498.415V485.002C444.89 484.771 445.079 484.582 445.31 484.582H460.358C460.589 484.582 460.778 484.771 460.778 485.002V498.415C460.778 498.641 460.589 498.83 460.358 498.83ZM440.712 502.187H474.992V481.235H440.712V502.187ZM475.407 503.024H440.292C440.061 503.024 439.872 502.834 439.872 502.603V480.809C439.872 480.577 440.061 480.393 440.292 480.393H475.407C475.637 480.393 475.827 480.577 475.827 480.809V502.603C475.827 502.835 475.637 503.024 475.407 503.024Z" fill="#192848"/>
<path fill-rule="evenodd" clip-rule="evenodd" d="M465.66 493.439L467.943 496.301L470.226 493.439H465.66ZM465.66 489.976H470.226L467.943 487.113L465.66 489.976Z" fill="#192848"/>
</g>
</g>
<defs>
<clipPath id="clip0_1189_7">
<rect width="536" height="594" fill="white"/>
</clipPath>
</defs>
</svg>
